<?xml version="1.0" encoding="UTF-8" standalone="no"?>
<!-- Created with Inkscape (http://www.inkscape.org/) -->

<svg
   xmlns:dc="http://purl.org/dc/elements/1.1/"
   xmlns:cc="http://creativecommons.org/ns#"
   xmlns:rdf="http://www.w3.org/1999/02/22-rdf-syntax-ns#"
   xmlns:svg="http://www.w3.org/2000/svg"
   xmlns="http://www.w3.org/2000/svg"
   xmlns:sodipodi="http://sodipodi.sourceforge.net/DTD/sodipodi-0.dtd"
   xmlns:inkscape="http://www.inkscape.org/namespaces/inkscape"
   width="128mm"
   height="128mm"
   viewBox="0 0 453.54331 453.54331"
   id="svg4807"
   version="1.1"
   inkscape:version="0.91 r13725"
   sodipodi:docname="cmd.svg">
  <defs
     id="defs4809" />
  <sodipodi:namedview
     id="base"
     pagecolor="#ffffff"
     bordercolor="#666666"
     borderopacity="1.0"
     inkscape:pageopacity="0.0"
     inkscape:pageshadow="2"
     inkscape:zoom="0.98994949"
     inkscape:cx="157.95352"
     inkscape:cy="275.63739"
     inkscape:document-units="px"
     inkscape:current-layer="layer1"
     showgrid="false"
     inkscape:window-width="1600"
     inkscape:window-height="838"
     inkscape:window-x="0"
     inkscape:window-y="25"
     inkscape:window-maximized="1" />
  <metadata
     id="metadata4812">
    <rdf:RDF>
      <cc:Work
         rdf:about="">
        <dc:format>image/svg+xml</dc:format>
        <dc:type
           rdf:resource="http://purl.org/dc/dcmitype/StillImage" />
        <dc:title />
      </cc:Work>
    </rdf:RDF>
  </metadata>
  <g
     inkscape:label="Layer 1"
     inkscape:groupmode="layer"
     id="layer1"
     transform="translate(0,-598.8189)">
    <path
       inkscape:connector-curvature="0"
       id="path8436-3"
       d="m 229.79501,756.46165 c -31.83871,-4e-4 -48.47354,24.02827 -48.47091,54.92508 0.004,30.89194 16.63731,56.95168 48.47091,56.95127 31.83359,4.8e-4 46.68229,-24.53015 46.68699,-55.4221 0.002,-30.89688 -14.8483,-56.45473 -46.68699,-56.45425 z m -0.61971,5.68275 c 20.88423,0.004 37.81282,13.89787 37.81529,31.03819 -0.007,7.56971 0.82751,16.37819 -5.28727,22.04546 6.49177,4.13685 7.38476,9.55308 7.39695,15.17584 -0.007,7.96392 -8.71153,13.82564 -20.42399,17.85248 l 3.54686,13.04059 -45.50233,-1.50344 3.87646,-11.33937 c -12.06053,-3.96741 -20.14201,-11.44194 -20.16024,-19.55298 0.0159,-5.57013 -0.65158,-10.63324 5.73553,-14.75463 -6.20039,-5.68012 -4.8103,-13.33824 -4.82576,-20.96395 0.002,-17.14438 16.93911,-31.04089 37.8285,-31.03819 z m -17.32541,13.55427 -2.41292,9.65167 -10.85148,0 18.15611,8.71528 z m 36.4572,26.52863 -9.63838,8.13541 10.09989,0 -0.4612,-8.13541 z m 0.34251,21.149 c -4.24143,-7.3e-4 -7.67892,2.10218 -7.67382,4.69385 0.006,2.58688 3.44084,5.10358 7.67382,5.10286 4.23297,7.2e-4 7.66704,-2.51598 7.67381,-5.10286 0.005,-2.59167 -3.43238,-4.69458 -7.67381,-4.69385 z m -35.37607,0.63483 c -4.24142,-6.3e-4 -6.82187,0.61412 -6.81677,3.20395 -0.005,2.59237 2.15342,5.11648 6.39485,5.11577 4.24142,7.1e-4 8.10084,-1.4555 8.09573,-4.0478 0.005,-2.59156 -3.43239,-4.27255 -7.67381,-4.27192 z m 19.36914,7.75267 -2.71615,7.23891 -7.52878,4.81262 12.94795,1.80654 z"
       style="opacity:1;fill:#000000;fill-opacity:1;stroke:#000000;stroke-width:2.83507037;stroke-miterlimit:4;stroke-dasharray:none;stroke-opacity:1"
       sodipodi:nodetypes="cccccccccccccccccccccccccccccccccccccccccc" />
    <path
       style="opacity:1;fill:#000000;fill-opacity:1;stroke:#000000;stroke-width:2.46803808;stroke-miterlimit:4;stroke-dasharray:none;stroke-opacity:1"
       d="m 228.91086,646.6722 c -99.50789,0 -180.183156,80.6752 -180.183156,180.18309 0,97.3896 78.021016,176.91651 174.629216,180.26091 -1.85567,-0.1888 -3.43223,-0.5177 -4.57382,-1.0578 l -1.77347,-90.3561 -6.84519,-0.18639 -2.16241,-23.07133 -19.46202,-7.91859 -12.25903,11.5279 -25.21821,0 -14.42685,-10.81747 -1.07611,-149.57958 35.68067,0.36004 10.81221,11.54343 30.98992,-1.44681 0,-20.17762 c 5.88697,-1.92442 11.78589,-3.34876 17.67294,-3.57817 5.88697,-0.22939 11.77043,0.7352 17.6574,3.57817 l 0,20.17762 35.31476,0.71527 7.21852,-10.81221 31.72105,-0.71528 1.43128,150.65558 -12.24883,9.38103 -24.51272,0 -17.29962,-11.54344 -15.49491,8.64973 -2.89362,24.16033 -5.3984,-0.14019 1.77356,88.83148 c -8.28675,1.2469 -16.31343,2.1006 -22.26229,1.8823 1.31865,0.033 2.62622,0.1092 3.95148,0.1092 99.50796,0 179.40528,-80.92405 179.40528,-180.43201 0,-99.50796 -80.65959,-180.18309 -180.16755,-180.18309 z M 111.4542,730.85204 c 3.89455,-0.12427 8.05615,0.18958 12.39905,0.76227 l 2.03801,167.69068 c -12.91299,-0.63881 -25.82437,1.82245 -38.737339,-11.71452 L 86.640956,747.91818 c 3.918756,-12.4525 13.13011,-16.69234 24.813644,-17.06614 z m 222.14086,2.6291 c 12.91297,0.6388 25.82436,-1.80685 38.73733,11.73014 l 0.51296,139.65666 c -5.22497,16.60336 -19.84092,18.61132 -37.21277,16.31948 l -2.03792,-167.70628 z"
       id="path4784"
       inkscape:connector-curvature="0"
       sodipodi:nodetypes="csccccccccccccccsccccccccccccccssccccccccccccccc" />
    <path
       style="color:#000000;font-style:normal;font-variant:normal;font-weight:normal;font-stretch:normal;font-size:medium;line-height:normal;font-family:sans-serif;text-indent:0;text-align:start;text-decoration:none;text-decoration-line:none;text-decoration-style:solid;text-decoration-color:#000000;letter-spacing:normal;word-spacing:normal;text-transform:none;direction:ltr;block-progression:tb;writing-mode:lr-tb;baseline-shift:baseline;text-anchor:start;white-space:normal;clip-rule:nonzero;display:inline;overflow:visible;visibility:visible;opacity:1;isolation:auto;mix-blend-mode:normal;color-interpolation:sRGB;color-interpolation-filters:linearRGB;solid-color:#000000;solid-opacity:1;fill:#000000;fill-opacity:1;fill-rule:nonzero;stroke:none;stroke-width:15.93053913;stroke-linecap:butt;stroke-linejoin:miter;stroke-miterlimit:4;stroke-dasharray:none;stroke-dashoffset:0;stroke-opacity:1;color-rendering:auto;image-rendering:auto;shape-rendering:auto;text-rendering:auto;enable-background:accumulate"
       d="m 228.90234,604.42188 c -122.82137,0 -222.55859,99.73722 -222.55859,222.55859 0,122.82137 99.73722,222.55863 222.55859,222.55863 122.82137,0 222.5586,-99.73726 222.5586,-222.55863 0,-122.82137 -99.73723,-222.5586 -222.5586,-222.55859 z m 0,15.92968 c 114.21187,0 206.62891,92.41704 206.62891,206.62891 0,114.21187 -92.41704,206.62693 -206.62891,206.62693 -114.21186,0 -206.626949,-92.41506 -206.626949,-206.62693 0,-114.21187 92.415089,-206.62891 206.626949,-206.62891 z"
       id="path4794"
       inkscape:connector-curvature="0" />
  </g>
</svg>
