<?xml version="1.0" encoding="UTF-8" standalone="no"?>
<!-- Created with Inkscape (http://www.inkscape.org/) -->

<svg
   xmlns:dc="http://purl.org/dc/elements/1.1/"
   xmlns:cc="http://creativecommons.org/ns#"
   xmlns:rdf="http://www.w3.org/1999/02/22-rdf-syntax-ns#"
   xmlns:svg="http://www.w3.org/2000/svg"
   xmlns="http://www.w3.org/2000/svg"
   xmlns:sodipodi="http://sodipodi.sourceforge.net/DTD/sodipodi-0.dtd"
   xmlns:inkscape="http://www.inkscape.org/namespaces/inkscape"
   width="128"
   height="128"
   viewBox="0 0 128 128"
   id="svg7370"
   version="1.1"
   inkscape:version="0.91 r13725"
   sodipodi:docname="resource.svg">
  <defs
     id="defs7372" />
  <sodipodi:namedview
     id="base"
     pagecolor="#ffffff"
     bordercolor="#666666"
     borderopacity="1.0"
     inkscape:pageopacity="0.0"
     inkscape:pageshadow="2"
     inkscape:zoom="3.3052329"
     inkscape:cx="55.67644"
     inkscape:cy="84.495959"
     inkscape:document-units="px"
     inkscape:current-layer="layer1"
     showgrid="false"
     units="px"
     inkscape:snap-bbox="true"
     inkscape:snap-global="true"
     inkscape:window-width="1600"
     inkscape:window-height="838"
     inkscape:window-x="0"
     inkscape:window-y="25"
     inkscape:window-maximized="1" />
  <metadata
     id="metadata7375">
    <rdf:RDF>
      <cc:Work
         rdf:about="">
        <dc:format>image/svg+xml</dc:format>
        <dc:type
           rdf:resource="http://purl.org/dc/dcmitype/StillImage" />
        <dc:title></dc:title>
      </cc:Work>
    </rdf:RDF>
  </metadata>
  <g
     inkscape:label="Layer 1"
     inkscape:groupmode="layer"
     id="layer1"
     transform="translate(0,-924.36221)">
    <path
       style="opacity:1;fill:#000000;fill-opacity:1;stroke:#000000;stroke-width:4.3180294;stroke-miterlimit:4;stroke-dasharray:none;stroke-opacity:1"
       d="M 65.099609 2.7265625 C 64.700811 2.7187378 64.303255 2.71948 63.904297 2.7304688 C 60.712625 2.8183687 57.515891 3.4935056 54.324219 4.4785156 L 54.324219 12.189453 A 52.906024 52.905673 0 0 0 33.970703 20.634766 L 28.578125 15.242188 C 22.671076 18.363287 17.657187 22.373204 15.033203 28.777344 L 20.384766 34.128906 A 52.906024 52.905673 0 0 0 11.910156 54.623047 L 4.3300781 54.623047 C 2.3600336 61.006627 1.65674 67.387904 4.3300781 73.771484 L 11.890625 73.771484 A 52.906024 52.905673 0 0 0 20.416016 94.234375 L 15.033203 99.617188 C 18.154079 105.52419 22.173886 110.52834 28.578125 113.15234 L 33.941406 107.79102 A 52.906024 52.905673 0 0 0 54.324219 116.18555 L 54.324219 123.91602 C 60.707564 125.88602 67.089311 126.58932 73.472656 123.91602 L 73.472656 116.20508 A 52.906024 52.905673 0 0 0 93.935547 107.67969 L 99.408203 113.15234 C 105.31525 110.03124 110.33109 106.02139 112.95508 99.617188 L 107.50195 94.164062 A 52.906024 52.905673 0 0 0 115.89648 73.771484 L 123.6582 73.771484 C 125.62824 67.387904 126.33154 61.006627 123.6582 54.623047 L 115.90625 54.623047 A 52.906024 52.905673 0 0 0 107.46094 34.269531 L 112.95508 28.777344 C 109.8342 22.870334 105.81244 17.866158 99.408203 15.242188 L 93.966797 20.685547 A 52.906024 52.905673 0 0 0 73.472656 12.210938 L 73.472656 4.4785156 C 70.679943 3.3089381 67.891198 2.7813354 65.099609 2.7265625 z M 63.994141 20.568359 A 43.622272 43.622272 0 0 1 107.61523 64.189453 A 43.622272 43.622272 0 0 1 63.994141 107.8125 A 43.622272 43.622272 0 0 1 20.371094 64.189453 A 43.622272 43.622272 0 0 1 63.994141 20.568359 z "
       transform="translate(0,924.36221)"
       id="path8441" />
    <path
       style="fill:#000000"
       d="m 85.742704,1017.3664 c -0.578307,-0.089 -1.573258,-0.4573 -2.148624,-0.7952 -0.45064,-0.2645 -2.956065,-2.7102 -10.847229,-10.5888 l -10.261238,-10.24456 -1.798611,1.88441 c -0.989236,1.03656 -2.216905,2.32327 -2.728157,2.85945 -0.511251,0.5362 -0.951527,0.9977 -0.978382,1.0255 -0.448163,0.4646 -2.45464,2.5771 -3.662426,3.856 -0.859451,0.91 -2.004879,2.118 -2.545391,2.6846 -0.540521,0.5666 -1.898289,1.9971 -3.017266,3.1789 -2.596361,2.742 -3.469145,3.5892 -4.20048,4.0777 -1.296732,0.8662 -2.869775,1.2757 -4.110255,1.0701 -1.614476,-0.2676 -3.203598,-1.478 -3.997741,-3.0452 -0.921504,-1.8184 -0.61357,-4.304 0.756585,-6.107 0.526103,-0.6922 2.557531,-2.6957 8.22203,-8.10859 1.178975,-1.1267 2.391425,-2.29014 2.694329,-2.58563 0.302904,-0.2954 1.425605,-1.37215 2.494885,-2.39279 2.220134,-2.11904 4.221117,-4.04821 6.023545,-5.8075 l 1.247159,-1.21729 -4.908971,-4.93558 c -4.125962,-4.14834 -4.949955,-4.93349 -5.165942,-4.92245 -2.201613,2.096 -5.566204,6.29 -7.849055,9.37252 l -2.93963,-2.24773 c 5.230924,-5.45164 4.574728,-9.25141 4.184492,-13.19133 0.147592,-0.17605 0.384297,-0.66598 0.526013,-1.08876 0.370279,-1.10466 0.785194,-1.6973 2.076649,-2.96613 0.843111,-0.82834 1.365622,-1.25131 1.990679,-1.61146 0.844982,-0.48687 0.847513,-0.48951 0.8496,-0.88601 0.0027,-0.54179 0.259847,-1.25564 0.678525,-1.88469 0.191977,-0.28842 0.418589,-0.62874 0.503594,-0.75627 0.343967,-0.51605 1.935769,-2.2374 3.625565,-3.92061 l 1.789995,-1.78303 4.490964,4.49909 4.490958,4.49911 -1.953295,1.92578 c -3.344474,3.29738 -4.985322,4.50861 -6.318707,4.66437 -0.491925,0.0575 -0.567264,0.0959 -0.649257,0.33107 -0.08941,0.25649 0.08235,0.44115 4.768187,5.12629 3.759623,3.75906 4.894725,4.84095 5.010063,4.77522 0.08203,-0.0468 1.065431,-0.96862 2.185348,-2.04861 1.119923,-1.07999 2.352653,-2.2596 2.739395,-2.62134 l 0.703169,-0.65774 -0.179373,-0.45508 c -0.641358,-1.62724 -0.829772,-4.68768 -0.41106,-6.67694 1.108606,-5.26686 5.127919,-9.22254 10.366694,-10.20257 0.487215,-0.0911 1.416585,-0.16011 2.249748,-0.16694 1.608794,-0.0133 1.849155,0.0653 2.110026,0.68973 0.284764,0.68153 0.260316,0.71339 -3.254743,4.24097 l -3.270386,3.28203 0.310184,1.11288 c 0.526515,1.889 0.837846,3.01784 1.175936,4.26369 l 0.324976,1.19754 0.348043,0.0921 c 1.91072,0.50546 5.806116,1.46829 5.94039,1.46829 0.09438,0 1.571138,-1.40327 3.295708,-3.13169 1.718584,-1.72242 3.243378,-3.19473 3.388427,-3.27177 0.572379,-0.30402 1.204121,-0.11511 1.494792,0.44699 0.201409,0.38947 0.196731,2.593 -0.0077,3.75901 -0.809504,4.61095 -4.115733,8.50285 -8.489406,9.9932 -2.664517,0.90794 -5.835431,0.94389 -8.291289,0.0939 l -0.580329,-0.20084 -0.496255,0.54114 c -0.47293,0.51572 -1.010437,1.08253 -2.720741,2.86907 l -0.761548,0.7955 10.140265,10.14289 c 5.577149,5.57869 10.301162,10.34269 10.497816,10.58669 0.531807,0.66 1.027736,1.7876 1.15615,2.6285 0.351,2.2986 -0.645553,4.4691 -2.618477,5.7035 -0.912518,0.5709 -2.658606,0.9412 -3.688644,0.7824 z m -44.051487,-4.7244 c 1.135213,-0.4944 1.644299,-1.9535 1.078052,-3.0898 -0.840482,-1.6866 -3.153697,-1.7743 -4.108957,-0.1558 -0.79961,1.3548 -0.0291,3.0471 1.570663,3.4497 0.37748,0.095 0.960496,0.014 1.460242,-0.2041 z"
       id="path4174"
       inkscape:connector-curvature="0"
       sodipodi:nodetypes="ccccccccsccscccccscsccccsssccsscccsccscscccscccscssccsscccscccscscsccccsssc" />
  </g>
</svg>
