<?xml version="1.0" encoding="UTF-8" standalone="no"?>
<!-- Created with Inkscape (http://www.inkscape.org/) -->

<svg
   xmlns:dc="http://purl.org/dc/elements/1.1/"
   xmlns:cc="http://creativecommons.org/ns#"
   xmlns:rdf="http://www.w3.org/1999/02/22-rdf-syntax-ns#"
   xmlns:svg="http://www.w3.org/2000/svg"
   xmlns="http://www.w3.org/2000/svg"
   xmlns:sodipodi="http://sodipodi.sourceforge.net/DTD/sodipodi-0.dtd"
   xmlns:inkscape="http://www.inkscape.org/namespaces/inkscape"
   width="128"
   height="128"
   viewBox="0 0 128 128"
   id="svg7370"
   version="1.1"
   inkscape:version="0.91 r13725"
   sodipodi:docname="shield.svg">
  <defs
     id="defs7372" />
  <sodipodi:namedview
     id="base"
     pagecolor="#ffffff"
     bordercolor="#666666"
     borderopacity="1.0"
     inkscape:pageopacity="0.0"
     inkscape:pageshadow="2"
     inkscape:zoom="2.3371526"
     inkscape:cx="-7.6307468"
     inkscape:cy="21.082291"
     inkscape:document-units="px"
     inkscape:current-layer="g8538"
     showgrid="false"
     units="px"
     inkscape:snap-bbox="false"
     inkscape:snap-global="false"
     inkscape:window-width="1600"
     inkscape:window-height="838"
     inkscape:window-x="0"
     inkscape:window-y="25"
     inkscape:window-maximized="1" />
  <metadata
     id="metadata7375">
    <rdf:RDF>
      <cc:Work
         rdf:about="">
        <dc:format>image/svg+xml</dc:format>
        <dc:type
           rdf:resource="http://purl.org/dc/dcmitype/StillImage" />
        <dc:title />
      </cc:Work>
    </rdf:RDF>
  </metadata>
  <g
     inkscape:label="Layer 1"
     inkscape:groupmode="layer"
     id="layer1"
     transform="translate(0,-924.36221)">
    <g
       id="g8538"
       transform="matrix(5.1410348,0,0,5.1410007,-158.36577,-4125.2772)">
      <path
         inkscape:connector-curvature="0"
         id="path8436"
         d="m 43.251931,986.42904 a 8.5389462,8.2864075 0 0 0 -8.539063,8.28711 8.5389462,8.2864075 0 0 0 8.539063,8.28515 8.5389462,8.2864075 0 0 0 8.539062,-8.28515 8.5389462,8.2864075 0 0 0 -8.539062,-8.28711 z m -0.0918,0.84179 c 3.093572,5.1e-4 5.601187,2.05871 5.601562,4.59766 -0.0016,1.12131 0.122573,2.42614 -0.783203,3.26562 0.961617,0.61287 1.093903,1.41509 1.095703,2.24805 -0.0013,1.17967 -1.290441,2.04802 -3.02539,2.64444 l 0.52539,1.9317 -6.740234,-0.2227 0.574219,-1.6797 c -1.786514,-0.58762 -2.983628,-1.69486 -2.986328,-2.89639 0.0029,-0.82505 -0.09652,-1.57509 0.849609,-2.18555 -0.918465,-0.84141 -0.712544,-1.97579 -0.714844,-3.10547 3.76e-4,-2.53957 2.509181,-4.59804 5.603516,-4.59766 z m -2.566406,2.00782 -0.357422,1.42968 -1.607422,0 2.689453,1.29102 -0.724609,-2.7207 z m 5.40039,3.92968 -1.427734,1.20508 1.496094,0 -0.06836,-1.20508 z m 0.05078,3.13282 c -0.628277,-10e-5 -1.137472,0.31136 -1.136719,0.69531 0.001,0.38318 0.509689,0.75596 1.136719,0.75586 0.627028,10e-5 1.135718,-0.37268 1.136718,-0.75586 7.53e-4,-0.38395 -0.508443,-0.69541 -1.136718,-0.69531 z m -5.240235,0.0937 c -0.628277,-10e-5 -1.01052,0.0907 -1.009765,0.47461 -7.55e-4,0.38394 0.318989,0.75791 0.947265,0.75781 0.628278,10e-5 1.199973,-0.21566 1.199219,-0.59961 7.54e-4,-0.38395 -0.508442,-0.63291 -1.136719,-0.63281 z m 2.869141,1.14843 -0.402344,1.07227 -1.115234,0.71289 1.917968,0.26758 -0.40039,-2.05274 z"
         style="opacity:1;fill:#000000;fill-opacity:1;stroke:#000000;stroke-width:0.41995862;stroke-miterlimit:4;stroke-dasharray:none;stroke-opacity:1" />
      <path
         style="color:#000000;font-style:normal;font-variant:normal;font-weight:normal;font-stretch:normal;font-size:medium;line-height:normal;font-family:sans-serif;text-indent:0;text-align:start;text-decoration:none;text-decoration-line:none;text-decoration-style:solid;text-decoration-color:#000000;letter-spacing:normal;word-spacing:normal;text-transform:none;direction:ltr;block-progression:tb;writing-mode:lr-tb;baseline-shift:baseline;text-anchor:start;white-space:normal;clip-rule:nonzero;display:inline;overflow:visible;visibility:visible;opacity:1;isolation:auto;mix-blend-mode:normal;color-interpolation:sRGB;color-interpolation-filters:linearRGB;solid-color:#000000;solid-opacity:1;fill:#000000;fill-opacity:1;fill-rule:nonzero;stroke:none;stroke-width:0.83991724;stroke-linecap:butt;stroke-linejoin:miter;stroke-miterlimit:4;stroke-dasharray:none;stroke-dashoffset:0;stroke-opacity:1;color-rendering:auto;image-rendering:auto;shape-rendering:auto;text-rendering:auto;enable-background:accumulate"
         d="m 43.222656,982.33984 c -0.672183,0.0185 -1.3299,0.16041 -1.974609,0.35938 l -0.296875,0.0918 0,1.53906 c -1.220799,0.27119 -2.379385,0.75112 -3.433594,1.42383 l -1.076172,-1.07618 -0.273437,0.14454 c -1.193575,0.63065 -2.269878,1.48322 -2.828125,2.8457 l -0.105469,0.25781 1.046875,1.04688 c -0.677906,1.06189 -1.161367,2.23045 -1.431641,3.46093 l -1.513671,0 -0.08984,0.29688 c -0.398149,1.29014 -0.554982,2.65188 0.01367,4.00976 l 0.107422,0.25782 1.480468,0 c 0.273253,1.22918 0.759398,2.39533 1.439453,3.45505 l -1.074218,1.0742 0.144531,0.2754 c 0.630876,1.1941 1.483711,2.2662 2.845703,2.8243 l 0.259766,0.1054 1.048828,-1.0488 c 1.0568,0.6707 2.21683,1.1499 3.439453,1.418 l 0,1.541 0.296875,0.092 c 1.290098,0.3981 2.651925,0.555 4.009765,-0.014 l 0.257813,-0.1094 0,-1.5078 c 1.229723,-0.2734 2.394968,-0.7609 3.455078,-1.4414 l 1.091797,1.0918 0.273438,-0.1445 c 1.193571,-0.6307 2.269877,-1.4813 2.828124,-2.8438 l 0.105469,-0.2597 -1.066406,-1.0664 c 0.670621,-1.05708 1.148185,-2.21862 1.416016,-3.44145 l 1.548828,0 0.08984,-0.29493 c 0.39815,-1.29014 0.554982,-2.65383 -0.01367,-4.01171 l -0.107422,-0.25782 -1.517578,0 C 53.34795,991.2128 52.86802,990.05421 52.195312,989 l 1.095704,-1.0957 -0.144532,-0.27344 c -0.630875,-1.19409 -1.483707,-2.26813 -2.845703,-2.82617 l -0.259765,-0.10547 -1.064454,1.06445 c -1.062294,-0.67813 -2.229948,-1.15949 -3.460937,-1.42969 l 0,-1.51367 -0.257813,-0.10742 c -0.678359,-0.2841 -1.362978,-0.39156 -2.035156,-0.37305 z m 0.02344,0.83985 c 0.48248,-0.0133 0.954184,0.0994 1.429687,0.26172 l 0,1.51171 0.34375,0.0645 c 1.37195,0.25101 2.675681,0.7888 3.824219,1.58008 l 0.287109,0.19922 1.066407,-1.06641 c 0.895092,0.43978 1.526118,1.15298 2.035156,2.04492 l -1.070313,1.07031 0.199219,0.28711 c 0.785894,1.1412 1.323338,2.43451 1.576172,3.79688 l 0.0625,0.34375 1.517578,0 c 0.321951,0.94377 0.265119,1.89383 -0.0059,2.88476 l -1.513672,0 -0.06445,0.34571 c -0.248994,1.36423 -0.780914,2.66048 -1.564453,3.80469 l -0.197266,0.2871 1.066406,1.0664 c -0.439947,0.8954 -1.151602,1.5258 -2.044922,2.0352 l -1.068359,-1.0684 -0.287109,0.1992 c -1.146081,0.7939 -2.447634,1.3372 -3.81836,1.5918 l -0.34375,0.062 0,1.5098 c -0.943787,0.3219 -1.8938,0.2652 -2.884765,-0.01 l 0,-1.5078 -0.34375,-0.062 c -1.363595,-0.2492 -2.661031,-0.7831 -3.804688,-1.5664 l -0.287109,-0.1973 -1.048828,1.0489 c -0.895343,-0.44 -1.527992,-1.1507 -2.03711,-2.043 l 1.050781,-1.0508 -0.199218,-0.2871 c -0.793858,-1.14606 -1.337192,-2.44763 -1.591797,-3.81835 l -0.0625,-0.34375 -1.480469,0 c -0.322046,-0.94429 -0.265521,-1.89323 0.0059,-2.88476 l 1.478515,0 0.0625,-0.34375 c 0.251007,-1.37195 0.790759,-2.67568 1.582031,-3.82422 l 0.199219,-0.28711 -1.046875,-1.04688 c 0.439985,-0.89498 1.149919,-1.52792 2.042969,-2.0371 l 1.052734,1.05273 0.28711,-0.19922 c 1.141201,-0.78589 2.434507,-1.32138 3.796875,-1.57422 l 0.34375,-0.0645 0,-1.50195 c 0.492239,-0.13431 0.982117,-0.25456 1.455078,-0.26758 z"
         id="path8441"
         inkscape:connector-curvature="0" />
    </g>
  </g>
</svg>
