<?xml version="1.0" encoding="UTF-8" standalone="no"?>
<!-- Created with Inkscape (http://www.inkscape.org/) -->

<svg
   xmlns:dc="http://purl.org/dc/elements/1.1/"
   xmlns:cc="http://creativecommons.org/ns#"
   xmlns:rdf="http://www.w3.org/1999/02/22-rdf-syntax-ns#"
   xmlns:svg="http://www.w3.org/2000/svg"
   xmlns="http://www.w3.org/2000/svg"
   xmlns:sodipodi="http://sodipodi.sourceforge.net/DTD/sodipodi-0.dtd"
   xmlns:inkscape="http://www.inkscape.org/namespaces/inkscape"
   id="svg6122"
   version="1.1"
   inkscape:version="0.91 r13725"
   width="128"
   height="128"
   viewBox="0 0 128 128"
   sodipodi:docname="space.svg">
  <metadata
     id="metadata6128">
    <rdf:RDF>
      <cc:Work
         rdf:about="">
        <dc:format>image/svg+xml</dc:format>
        <dc:type
           rdf:resource="http://purl.org/dc/dcmitype/StillImage" />
        <dc:title />
      </cc:Work>
    </rdf:RDF>
  </metadata>
  <defs
     id="defs6126" />
  <sodipodi:namedview
     pagecolor="#ffffff"
     bordercolor="#666666"
     borderopacity="1"
     objecttolerance="10"
     gridtolerance="10"
     guidetolerance="10"
     inkscape:pageopacity="0"
     inkscape:pageshadow="2"
     inkscape:window-width="1600"
     inkscape:window-height="838"
     id="namedview6124"
     showgrid="false"
     inkscape:zoom="1"
     inkscape:cx="18.19689"
     inkscape:cy="14.181216"
     inkscape:window-x="0"
     inkscape:window-y="25"
     inkscape:window-maximized="1"
     inkscape:current-layer="svg6122"
     showguides="false" />
  <g
     id="g7360"
     transform="matrix(1.9822075,0,0,2.0812987,46.479176,5.2149785)">
    <ellipse
       ry="1.0792227"
       rx="1.8744395"
       cy="17.60837"
       cx="8.8609858"
       id="path7081"
       style="fill:#000000;fill-opacity:1;stroke:none;stroke-width:2.5;stroke-miterlimit:4;stroke-dasharray:none" />
    <path
       id="path7073"
       d="M 11.019432,9.5426008 A 2.2152467,1.8460389 0 0 1 8.8041857,11.38864 2.2152467,1.8460389 0 0 1 6.5889391,9.5426008 2.2152467,1.8460389 0 0 1 8.8041857,7.6965619 2.2152467,1.8460389 0 0 1 11.019432,9.5426008 Z"
       style="fill:#000000;fill-opacity:1;stroke:none;stroke-width:2.5;stroke-miterlimit:4;stroke-dasharray:none"
       inkscape:connector-curvature="0" />
    <path
       id="rect7075"
       d="m 7.9521679,10.110613 1.7040358,0 0,6.248131 -1.7040358,0 z"
       style="fill:#000000;fill-opacity:1;stroke:none;stroke-width:2.5;stroke-miterlimit:4;stroke-dasharray:none"
       inkscape:connector-curvature="0" />
    <path
       sodipodi:nodetypes="ccccccc"
       inkscape:connector-curvature="0"
       id="path7079"
       d="m 2.896861,15.506726 12.041854,0 0,2.158446 -4.657698,-0.45441 -3.4080723,0 -4.2032885,0.45441 z"
       style="fill:#000000;fill-opacity:1;fill-rule:evenodd;stroke:none;stroke-width:1px;stroke-linecap:butt;stroke-linejoin:miter;stroke-opacity:1" />
    <path
       inkscape:connector-curvature="0"
       id="path7088"
       d="m 6.929746,36.523169 3.862481,0 0,9.088191 -1.817638,3.180867 -2.272048,-3.408072 z"
       style="fill:#000000;fill-opacity:1;fill-rule:evenodd;stroke:none;stroke-width:1px;stroke-linecap:butt;stroke-linejoin:miter;stroke-opacity:1" />
    <path
       sodipodi:nodetypes="cccccccccccccccccccccccc"
       inkscape:connector-curvature="0"
       id="path7151"
       d="m 19.694363,19.249272 c -0.187657,0.718737 -1.672856,1.365875 -2.431117,1.281222 -0.0107,1.980213 0.611128,5.886351 -0.975355,6.170316 -0.209845,1.192825 -1.047424,6.545434 0.731525,7.094441 l 0.494575,4.304293 c 0.291536,-1.365274 0.613345,-3.668871 1.183079,-4.060452 0.914164,1.491725 1.403965,2.66314 3.082718,3.638133 -0.837451,-1.457899 -1.322279,-2.433822 -1.321881,-3.89172 1.323445,1.074364 2.301924,2.231097 4.340419,2.896862 -1.263499,-1.42003 -2.491475,-2.759731 -2.572691,-4.179761 2.177379,2.596636 4.203847,2.736172 6.381226,3.157339 -1.898552,-1.286055 -3.963465,-2.336887 -4.714501,-4.657698 1.482705,0.992228 3.705222,3.191945 7.334248,2.511852 -2.256138,-0.873038 -4.616694,-1.954498 -5.112108,-3.595111 2.366828,1.261915 4.9484,1.684663 7.845455,1.640343 -2.537543,-0.95235 -5.358121,-1.567211 -5.977907,-3.056337 3.995942,1.902205 7.326245,0.503911 9.560909,0.08033 -3.625653,-0.448604 -6.610713,-0.275736 -9.033062,-2.730494 1.549168,0.580439 6.368494,1.520774 10.598296,-0.09982 -3.152768,-0.468158 -6.01154,-0.17902 -8.626891,-1.453303 2.953662,0.425099 6.64574,0.08898 9.599403,-0.624813 0,0 -5.416833,0.07446 -7.781764,-1.082077 6.347684,-0.192277 6.581189,-1.039263 8.860986,-2.272049 -6.307095,0.556866 -12.283087,0.183898 -21.465562,-1.071496 z"
       style="opacity:1;fill:#000000;fill-opacity:1;fill-rule:evenodd;stroke:#000000;stroke-width:0.04923322;stroke-linecap:butt;stroke-linejoin:miter;stroke-miterlimit:4;stroke-dasharray:none;stroke-opacity:1" />
    <path
       sodipodi:nodetypes="cccccccccccccccccccccccc"
       inkscape:connector-curvature="0"
       id="path7151-9"
       d="m -1.694954,19.209107 c 0.111977,0.926986 1.347913,1.568628 2.029471,1.482045 -0.09781,1.986636 -0.50787,5.801875 1.377001,6.089986 0.209845,1.192825 0.726108,6.625763 -1.052841,7.17477 l -0.494575,4.304293 c -0.291536,-1.365274 -0.613345,-3.668871 -1.183079,-4.060452 -0.914164,1.491725 -1.403964,2.66314 -3.082717,3.638133 0.837451,-1.457899 1.322279,-2.433822 1.321881,-3.89172 -1.323445,1.074364 -2.301924,2.231097 -4.340419,2.896862 1.263499,-1.42003 2.491475,-2.759731 2.572691,-4.179761 -2.177379,2.596636 -4.203848,2.736172 -6.381227,3.157339 1.898552,-1.286055 3.963466,-2.336887 4.714502,-4.657698 -1.482705,0.992228 -3.705223,3.191945 -7.334249,2.511852 2.256138,-0.873038 4.616694,-1.954498 5.112108,-3.595111 -2.366828,1.261915 -4.9484,1.684663 -7.845455,1.640343 2.537543,-0.95235 5.358121,-1.567211 5.977907,-3.056337 -3.995942,1.902205 -7.326245,0.503911 -9.560909,0.08033 3.625653,-0.448604 6.610713,-0.275736 9.033062,-2.730494 -1.549168,0.580439 -6.368494,1.520774 -10.598296,-0.09982 3.152768,-0.468158 6.01154,-0.17902 8.626891,-1.453303 -2.953662,0.425099 -6.64574,0.08898 -9.599403,-0.624813 0,0 5.416833,0.07446 7.781764,-1.082077 -6.347684,-0.192277 -6.581189,-1.039263 -8.860986,-2.272048 6.307095,0.556866 12.604403,-0.01693 21.786878,-1.272319 z"
       style="opacity:1;fill:#000000;fill-opacity:1;fill-rule:evenodd;stroke:#000000;stroke-width:0.04923322;stroke-linecap:butt;stroke-linejoin:miter;stroke-miterlimit:4;stroke-dasharray:none;stroke-opacity:1" />
    <path
       style="opacity:1;fill:#000000;fill-opacity:1;stroke:#000000;stroke-width:0.04923322;stroke-miterlimit:4;stroke-dasharray:none;stroke-opacity:1"
       d="m 8.979709,19.292595 c -3.5823,1.09e-4 -6.486273,2.391668 -6.486328,5.341797 0.0047,0.82133 0.239273,1.630709 0.685547,2.365234 0.450308,-0.446059 0.9638,-0.88554 1.335087,-1.606068 -0.178395,0.596659 -0.09774,1.218008 -0.819462,2.324818 l 0.01758,0.02148 c -0.53302,0.588266 -0.814573,1.255775 -0.816406,1.935547 0.0029,1.405641 1.1965,2.700092 3.11914,3.382813 l -0.228515,1.699218 6.345703,0.03906 -0.160156,-1.759766 c 1.886577,-0.689891 3.051197,-1.97224 3.052734,-3.361328 -0.0023,-0.653263 -0.263023,-1.29555 -0.757812,-1.867187 l -0.0039,0.0039 c -0.0098,-0.01227 -0.01384,-0.02104 -0.02344,-0.0332 l -0.01172,-0.01367 0.0019,-0.002 c -1.09628,-1.038303 -0.872184,-1.685354 -0.990235,-2.279297 0.371852,0.721624 1.022942,1.152207 1.501953,1.578125 0.471314,-0.750652 0.719651,-1.58268 0.72461,-2.427734 -5.6e-5,-2.950129 -2.904029,-5.341688 -6.486329,-5.341797 z m -3.197032,8.54262 c 0.947217,-0.03298 1.69798,0.42702 1.856804,1.13479 0.156172,0.695949 -0.498303,1.560417 -1.173945,1.788983 -0.817852,0.276674 -2.218937,-0.02449 -2.443898,-0.858047 -0.23576,-0.873577 0.461736,-1.812711 1.761039,-2.065726 z m 6.667725,-0.02353 c 0.753687,0.210325 1.548512,1.188713 1.324148,1.938341 -0.229355,0.766303 -1.450118,1.130401 -2.219613,0.911993 -0.727484,-0.206483 -1.525447,-1.104824 -1.332585,-1.836038 0.208113,-0.789036 1.442061,-1.233636 2.22805,-1.014296 z m -4.092386,3.050019 1.123646,0 0.402344,1.485575 -1.846904,0 z"
       id="path7191"
       inkscape:connector-curvature="0"
       sodipodi:nodetypes="cccccccccccccccccccccccaaacaaaaaccccc" />
  </g>
</svg>
